<?xml version="1.0" encoding="utf-8"?>
<!-- Generator: Adobe Illustrator 26.0.0, SVG Export Plug-In . SVG Version: 6.00 Build 0)  -->
<svg version="1.1" id="Layer_1" xmlns="http://www.w3.org/2000/svg" xmlns:xlink="http://www.w3.org/1999/xlink" x="0px" y="0px"
	 viewBox="0 0 100 100" style="enable-background:new 0 0 100 100;" xml:space="preserve">
<style type="text/css">
	.st0{fill:#2BD0D0;}
</style>
<path class="st0" d="M87.5,2.5h-75c-5.5,0-10,4.5-10,10v75c0,5.5,4.5,10,10,10h75c5.5,0,10-4.5,10-10v-75C97.5,7,93,2.5,87.5,2.5z
	 M76.2,65.3c-0.6,7.8-4.5,13.1-11.6,15.9c-9.6,3.7-19.3,2.7-28.7-0.3c-4-1.5-7.9-3.5-12-5.2c2.3-4.7,4.5-8.9,6.4-12.7
	c4.9,2,9.6,4.2,14.4,5.7c3.2,1,6.8,1,10.1,1c2.3,0,4.7-0.9,5.3-3.7c0.7-3-1-4.8-3.5-5.8c-3.2-1.3-6.7-2.3-9.9-3.6
	c-3.1-1.1-6.3-2.1-9.5-3.3c-5.9-2.5-9.9-6.6-10.5-13.4c-0.6-7.6,1.7-14,8.1-18.5c9-6.4,18.7-5.8,28.6-2.7c3.7,1.1,7.1,3,11,4.7
	c-2.3,4.3-4.3,8.4-6.2,11.9c-5.1-1.8-9.9-3.8-14.9-5c-2.3-0.6-5-0.1-7.5,0.3c-2.1,0.3-3.3,1.9-3.7,4.2c-0.2,2.1,0.6,3.9,2.3,4.8
	c2.3,1.1,4.8,2,7.2,2.9c4.6,1.6,9.4,2.7,13.9,4.6C73.5,50.5,76.7,56.8,76.2,65.3z"/>
</svg>
