<svg viewBox="0 0 300 100">
  <path d="M3.5,64.3c2.1-4.2,4-8,5.7-11.4c4.4,1.8,8.6,3.8,12.9,5.1c2.9,0.9,6.1,0.9,9.1,0.9c2.1,0,4.2-0.8,4.8-3.3
		c0.6-2.7-0.9-4.3-3.1-5.2c-2.9-1.2-6-2.1-8.9-3.2c-2.8-1-5.7-1.9-8.5-3c-5.3-2.2-8.9-5.9-9.4-12c-0.5-6.8,1.5-12.6,7.3-16.6
		c8.1-5.7,16.8-5.2,25.7-2.4c3.3,1,6.4,2.7,9.9,4.2c-2.1,3.9-3.9,7.5-5.6,10.7c-4.6-1.6-8.9-3.4-13.4-4.5c-2.1-0.5-4.5-0.1-6.7,0.3
		c-1.9,0.3-3,1.7-3.3,3.8c-0.2,1.9,0.5,3.5,2.1,4.3c2.1,1,4.3,1.8,6.5,2.6c4.1,1.4,8.4,2.4,12.5,4.1c7,3,9.9,8.7,9.4,16.3
		c-0.5,7-4,11.8-10.4,14.3c-8.6,3.3-17.3,2.4-25.8-0.3C10.7,67.7,7.2,65.9,3.5,64.3z" />
  <path d="M99.9,70.4c-4.1,0-8.3,0-12.8,0c0-1,0-2,0-2.9c-0.1-7.8,0.1-15.6-0.3-23.4c-0.3-5.8-5.3-8-10.1-4.9
		c-3.3,2.1-5.4,4.9-5.3,9.2c0.2,7.2,0.1,14.5,0.1,21.9c-4.3,0-8.5,0-12.9,0c0-20,0-40,0-60.1c4.2,0,8.4,0,12.9,0c0,7.9,0,15.6,0,24
		c3.5-4.7,7.5-7.1,12.5-7.9c8.9-1.4,15.5,3.4,15.8,12.5C100.2,49.4,99.9,59.8,99.9,70.4z" />
  <path d="M130.3,26.2c9.2,0.3,16.7,3.7,20.8,12.1c4.1,8.5,3.5,17-2.2,24.6c-4.4,5.9-10.7,8.2-17.9,8.4
		c-7.8,0.1-14.7-2.1-19.4-8.7c-5.5-7.6-6.1-16.1-2-24.4C113.8,29.8,121.4,26.5,130.3,26.2z M140.7,49c-0.2-0.1-0.4-0.2-0.7-0.2
		c0-0.6,0-1.1,0-1.7c-0.5-5.3-4.2-9.3-9-9.6c-4.7-0.3-8.7,2.8-9.9,7.9c-0.8,3.2-0.6,6.4,0.8,9.5c3.1,6.5,11.7,7.5,15.7,1.6
		C139.1,54.3,139.7,51.5,140.7,49z" />
  <path d="M256.6,77.5c1.3,0.2,2.2,0.4,3.2,0.6c5.9,1,9.9-4.1,7.7-9.7c-4.8-12.7-9.7-25.3-14.5-38c-0.4-1-0.7-2-1.1-3.1
		c4.6,0,8.9,0,13.5,0c3.3,10.4,6.6,20.9,9.9,31.3c0.2,0,0.3,0,0.5,0c2.8-10.4,5.7-20.8,8.5-31.3c4,0,8,0,12.2,0
		c-1.5,4.6-2.9,9.1-4.4,13.5c-3.9,12-7.8,23.9-11.8,35.9c-3.3,9.9-11.7,14.8-21.4,12.6c-1.7-0.4-2.5-1-2.4-2.9
		C256.7,83.5,256.6,80.5,256.6,77.5z" />
  <path d="M197.5,36.9c-2.1,0-3.7,0-5.4,0c0-3.3,0-6.3,0-9.6c1.7-0.1,3.4-0.1,5.4-0.2c0-4.6,0-9.1,0-13.7
		c4.5,0,8.7,0,13.1,0c0,4.6,0,9,0,13.7c3,0,5.8,0,8.8,0c0,3.4,0,6.5,0,9.9c-2.8,0-5.5,0-8.6,0c-0.1,1.1-0.1,2.1-0.1,3
		c0,4.9,0,9.8,0,14.6c0,4.1,2,5.6,5.9,4.6c1.2-0.3,2.3-0.7,3.7-1.1c0.8,3.4,1.6,6.8,2.4,10.2c-5.3,2.2-10.3,3.7-15.8,2.9
		c-5.6-0.7-9.1-4.1-9.3-9.8c-0.2-7.1-0.1-14.2-0.2-21.2C197.5,39.1,197.5,38.2,197.5,36.9z" />
  <path d="M228.8,10.2c4.3,0,8.4,0,12.8,0c0,1.1,0,2,0,3c0,13,0,26,0,39c0,0.6,0,1.1,0,1.7c0.1,5.6,2.2,7.2,7.6,5.6
		c0.3-0.1,0.6-0.2,1.2-0.3c0.5,2.9,1.1,5.8,1.4,8.7c0.1,0.4-0.5,1.2-0.9,1.4c-4.7,1.8-9.6,2.7-14.6,1.5c-4.8-1.1-7.7-4.6-7.7-10
		c-0.1-16.6,0-33.2,0-49.8C228.6,10.8,228.7,10.6,228.8,10.2z" />
  <path d="M161.2,27.3c4,0,7.8,0,11.8,0c0,2.6,0,5.1,0,7.6c3.9-5.1,8.2-8.9,15.3-8.2c0,3.8,0,7.6,0,11.5
		c-2.1,0.4-4.3,0.6-6.3,1.2c-1.8,0.6-3.6,1.4-5.3,2.4c-1.7,1.1-2.6,2.6-2.5,4.9c0.1,7.9,0.1,15.8,0.1,23.8c-4.3,0-8.5,0-12.9,0
		C161.2,56.1,161.2,41.8,161.2,27.3z" />
</svg>